<mxfile host="app.diagrams.net" modified="2023-07-07T02:04:20.843Z" agent="Mozilla/5.0 (Windows NT 10.0; Win64; x64) AppleWebKit/537.36 (KHTML, like Gecko) Chrome/114.0.0.0 Safari/537.36" etag="YFzO0ZEBzbMZsbBwflTq" version="21.6.1" type="github">
  <diagram name="第 1 页" id="YNht00nKZHE0qXAu7UTA">
    <mxGraphModel dx="794" dy="467" grid="1" gridSize="10" guides="1" tooltips="1" connect="1" arrows="1" fold="1" page="1" pageScale="1" pageWidth="827" pageHeight="1169" math="0" shadow="0">
      <root>
        <mxCell id="0" />
        <mxCell id="1" parent="0" />
        <mxCell id="5O0wVYmYXQdYufXjFaxW-7" value="" style="rounded=0;whiteSpace=wrap;html=1;fillColor=#1ba1e2;fontColor=#ffffff;strokeColor=#006EAF;" vertex="1" parent="1">
          <mxGeometry x="101" y="137" width="189" height="17" as="geometry" />
        </mxCell>
        <mxCell id="5O0wVYmYXQdYufXjFaxW-3" value="" style="rounded=0;whiteSpace=wrap;html=1;fillColor=#e3c800;strokeColor=#B09500;fontColor=#000000;" vertex="1" parent="1">
          <mxGeometry x="345" y="137" width="123" height="18" as="geometry" />
        </mxCell>
        <mxCell id="5O0wVYmYXQdYufXjFaxW-1" value="&lt;font face=&quot;Times New Roman&quot; style=&quot;font-size: 14px;&quot;&gt;Reflection or “critical reflection”, refers to an activity or process&lt;/font&gt;" style="text;html=1;align=center;verticalAlign=middle;resizable=0;points=[];autosize=1;strokeColor=none;fillColor=none;" vertex="1" parent="1">
          <mxGeometry x="90" y="130" width="390" height="30" as="geometry" />
        </mxCell>
        <mxCell id="5O0wVYmYXQdYufXjFaxW-2" value="&lt;font style=&quot;font-size: 14px;&quot; face=&quot;Times New Roman&quot;&gt;in which an experience is recalled, considered, and evaluated,&lt;/font&gt;" style="text;html=1;align=center;verticalAlign=middle;resizable=0;points=[];autosize=1;strokeColor=none;fillColor=none;" vertex="1" parent="1">
          <mxGeometry x="220" y="200" width="370" height="30" as="geometry" />
        </mxCell>
        <mxCell id="5O0wVYmYXQdYufXjFaxW-4" value="" style="endArrow=classic;html=1;rounded=0;fillColor=#e3c800;strokeColor=#B09500;" edge="1" parent="1">
          <mxGeometry width="50" height="50" relative="1" as="geometry">
            <mxPoint x="408.5" y="207" as="sourcePoint" />
            <mxPoint x="408.5" y="157" as="targetPoint" />
          </mxGeometry>
        </mxCell>
        <mxCell id="5O0wVYmYXQdYufXjFaxW-6" value="&lt;font style=&quot;font-size: 14px;&quot;&gt;形容词从句中的限制性定语从句&lt;/font&gt;" style="edgeLabel;html=1;align=center;verticalAlign=middle;resizable=0;points=[];" vertex="1" connectable="0" parent="5O0wVYmYXQdYufXjFaxW-4">
          <mxGeometry x="0.02" y="-3" relative="1" as="geometry">
            <mxPoint x="1" y="1" as="offset" />
          </mxGeometry>
        </mxCell>
        <mxCell id="5O0wVYmYXQdYufXjFaxW-8" value="&lt;font style=&quot;font-size: 14px;&quot; face=&quot;Times New Roman&quot;&gt;usually in relation to a broader purpose.&lt;/font&gt;" style="text;html=1;align=center;verticalAlign=middle;resizable=0;points=[];autosize=1;strokeColor=none;fillColor=none;" vertex="1" parent="1">
          <mxGeometry x="72" y="50" width="250" height="30" as="geometry" />
        </mxCell>
        <mxCell id="5O0wVYmYXQdYufXjFaxW-9" value="" style="endArrow=classic;html=1;rounded=0;fillColor=#1ba1e2;strokeColor=#006EAF;" edge="1" parent="1">
          <mxGeometry width="50" height="50" relative="1" as="geometry">
            <mxPoint x="199.5" y="74" as="sourcePoint" />
            <mxPoint x="199.5" y="133" as="targetPoint" />
          </mxGeometry>
        </mxCell>
        <mxCell id="5O0wVYmYXQdYufXjFaxW-10" value="&lt;font style=&quot;font-size: 14px;&quot;&gt;定语从句&lt;/font&gt;" style="edgeLabel;html=1;align=center;verticalAlign=middle;resizable=0;points=[];" vertex="1" connectable="0" parent="5O0wVYmYXQdYufXjFaxW-9">
          <mxGeometry x="-0.1017" y="1" relative="1" as="geometry">
            <mxPoint y="1" as="offset" />
          </mxGeometry>
        </mxCell>
      </root>
    </mxGraphModel>
  </diagram>
</mxfile>
